<?xml version="1.0" encoding="utf-8"?>
<!-- Generator: Adobe Illustrator 17.1.0, SVG Export Plug-In . SVG Version: 6.00 Build 0)  -->
<!DOCTYPE svg PUBLIC "-//W3C//DTD SVG 1.1//EN" "http://www.w3.org/Graphics/SVG/1.1/DTD/svg11.dtd">
<svg version="1.1" id="Layer_1" xmlns="http://www.w3.org/2000/svg" xmlns:xlink="http://www.w3.org/1999/xlink" x="0px" y="0px"
	 viewBox="0 0 370 370" enable-background="new 0 0 370 370" xml:space="preserve">
<title>black basketball</title>
<g>
	<title>Layer 1</title>
	<g id="layer1">
		<g id="g2614" transform="matrix(-1 0 0 1 369.173 0)">
			<path id="path2458" marker-start="none" marker-mid="none" marker-end="none" fill="#FFFFFF" d="M128.4,122.3l-23.5,28.9
				c57.2,41.9,32.9,187.6,96.3,214c44.9-4.4,84.9-25.5,113.8-56.9C257.2,238.8,197.4,172.7,128.4,122.3z"/>
			<path id="path2460" marker-start="none" marker-mid="none" marker-end="none" fill="#FFFFFF" d="M162.1,89.8l-25.3,25.3
				c83.8,71,136.8,130.5,182.3,187.2l0.8,0.4c26.3-31.1,42.1-71.2,42.1-115.1c0-3.5-0.1-7.1-0.3-10.6
				C330,113.1,210.9,134,162.1,89.8L162.1,89.8z"/>
			<path id="path2462" marker-start="none" marker-mid="none" marker-end="none" fill="#FFFFFF" d="M267.7,40.7
				c-39.8,0.4-90.4,26-95.3,40.7c1.6,36.8,170.6,26,188.4,86.7l0.2,0c-5.6-51.2-32.8-95.9-72.4-124.8
				C282.1,41.5,275,40.7,267.7,40.7z"/>
			<path id="path2464" marker-start="none" marker-mid="none" marker-end="none" fill="#FFFFFF" d="M183.6,9.2
				c-9,0-17.8,0.7-26.4,1.9c-26.5,28.7-12.4,54.5,1.9,62.4c12.2,8.7,43.5-45.6,122.2-35.2C253.2,19.9,219.7,9.2,183.6,9.2z"/>
			<path id="path2466" marker-start="none" marker-mid="none" marker-end="none" fill="#FFFFFF" d="M102.3,160.7
				c-1.6,0-3.3,0.4-5.1,1c-23.3,18.2-65.8,106.1-40.9,149.8c0,0,0,0,0,0c32.4,33,77.5,53.5,127.4,53.5c1.4,0,2.7,0,4.1,0
				C134,326.2,145.7,171.3,102.3,160.7z"/>
			<path id="path2468" marker-start="none" marker-mid="none" marker-end="none" fill="#FFFFFF" d="M59.3,139.2
				C39.8,139.8,17,150,6.3,172.3l-0.6,1.3c-0.4,4.6-0.6,9.3-0.6,14c0,44.1,16.1,84.6,42.7,115.7c-24.6-77.2,50.3-145.2,42.1-152.7
				C84.5,142.8,72.7,138.7,59.3,139.2z"/>
			<path id="path2470" marker-start="none" marker-mid="none" marker-end="none" fill="#FFFFFF" d="M53.7,65.4
				c-25.2,26.8-42.3,61.3-47.1,99.7c19-31.7,47.3-43.2,93-19.2l23.5-29.5C107.7,102.5,75.4,78.6,53.7,65.4z"/>
			<path id="path2472" marker-start="none" marker-mid="none" marker-end="none" fill="#FFFFFF" d="M149.5,12.4
				c-35,6.8-66.3,23.8-90.7,47.7l0.4,0.8c25.7,11.7,47.8,30.9,70.4,48.8l27.1-25.3C139.1,66.6,125.5,47.2,149.5,12.4z"/>
			<path id="path3332" marker-start="none" marker-mid="none" marker-end="none" fill="#FFFFFF" d="M128.4,122.3l-23.5,28.9
				c57.2,41.9,32.9,187.6,96.3,214c44.9-4.4,84.9-25.5,113.8-56.9C257.2,238.8,197.4,172.7,128.4,122.3z"/>
		</g>
	</g>
</g>
</svg>
